<?xml version="1.0" encoding="UTF-8" standalone="no"?>
<!-- Created with Inkscape (http://www.inkscape.org/) -->

<svg
   width="19.606253mm"
   height="19.606253mm"
   viewBox="0 0 19.606253 19.606253"
   version="1.1"
   id="svg1"
   xmlns:xlink="http://www.w3.org/1999/xlink"
   xmlns="http://www.w3.org/2000/svg"
   xmlns:svg="http://www.w3.org/2000/svg">
  <defs
     id="defs1">
    <linearGradient
       id="linearGradient8">
      <stop
         style="stop-color:#000000;stop-opacity:0.60000002;"
         offset="0"
         id="stop8" />
      <stop
         style="stop-color:#000000;stop-opacity:1;"
         offset="1"
         id="stop9" />
    </linearGradient>
    <radialGradient
       xlink:href="#linearGradient8"
       id="radialGradient9"
       cx="54.155136"
       cy="171.41196"
       fx="54.155136"
       fy="171.41196"
       r="9.8031263"
       gradientUnits="userSpaceOnUse" />
  </defs>
  <g
     id="layer1"
     transform="translate(-44.352009,-161.60883)">
    <path
       style="fill:url(#radialGradient9);stroke-width:0.264583"
       id="rect5"
       width="19.606253"
       height="19.606253"
       x="44.352009"
       y="161.60883"
       d="m 48.130542,161.60883 h 12.049187 c 2.093307,0 3.778532,1.68522 3.778532,3.77853 v 12.04919 c 0,2.0933 -1.685225,3.77853 -3.778532,3.77853 H 48.130542 c -2.093308,0 -3.778533,-1.68523 -3.778533,-3.77853 v -12.04919 c 0,-2.09331 1.685225,-3.77853 3.778533,-3.77853 z"
       ry="3.7785327" />
    <path
       d="m 51.073814,166.43349 -2.157081,9.37619 a 1.1255707,1.1255707 51.477998 0 0 1.096916,1.37793 h 2.023505 l 2.42905,-10.30458 a 1.0736619,1.0736619 51.711665 0 0 -1.042033,-1.31999 l -1.249404,-0.003 a 1.1264965,1.1264965 141.5577 0 0 -1.100953,0.87393 z"
       style="fill:#ffffff;fill-opacity:0.98;stroke-width:0.296761"
       id="path6"
       transform="translate(-0.07134526,-0.28538105)" />
    <path
       id="rect6"
       style="fill:#ffffff;fill-opacity:0.98;stroke-width:0.265049"
       d="m 49.406455,174.43915 9.30261,-0.0485 a 0.80188955,0.80188955 53.949323 0 1 0.765965,1.0523 l -0.308601,0.93876 a 1.2213813,1.2213813 144.09849 0 1 -1.160289,0.83996 l -7.815342,4e-5 A 1.1877896,1.1877896 52.875112 0 1 49.0476,175.71151 Z"
       transform="translate(-0.07134526,-0.28538105)" />
  </g>
</svg>
